<svg xmlns="http://www.w3.org/2000/svg" viewBox="54 62 349 329" width="349" height="329" role="img" aria-label="vocaphone">
  <path d="M 164 127 A 65 65 0 0 1 294 127 L 294 224 A 65 65 0 0 1 164 224 Z" fill="#070F1C"/>
  <path d="M 144.87 202.02 A 87 87 0 1 0 312.13 202.02" fill="none" stroke="#070F1C" stroke-width="18" stroke-linecap="round"/>
  <path d="M 228.5 313 L 228.5 382" fill="none" stroke="#070F1C" stroke-width="18" stroke-linecap="round"/>
  <path d="M 170 382 L 287 382" fill="none" stroke="#070F1C" stroke-width="18" stroke-linecap="round"/>
  <path d="M 95.71 141.40 A 165.6 141.6 0 0 0 95.71 310.60" fill="none" stroke="#070F1C" stroke-width="18" stroke-linecap="round"/>
  <path d="M 361.29 141.40 A 165.6 141.6 0 0 1 361.29 310.60" fill="none" stroke="#070F1C" stroke-width="18" stroke-linecap="round"/>
  <path d="M 123.12 168.78 A 129.0 99.2 0 0 0 123.12 283.22" fill="none" stroke="#070F1C" stroke-width="18" stroke-linecap="round"/>
  <path d="M 333.88 168.78 A 129.0 99.2 0 0 1 333.88 283.22" fill="none" stroke="#070F1C" stroke-width="18" stroke-linecap="round"/>
</svg>
